HIERARCHY
ROOT Hips
{
 OFFSET 0.000000 0.000000 0.000000
 CHANNELS 6 Xposition Yposition Zposition Yrotation Xrotation Zrotation
 JOINT Chest
 {
  OFFSET 0.000000 9.585900 0.002600
  CHANNELS 3 Yrotation Xrotation Zrotation
  JOINT Chest2
  {
   OFFSET 0.000000 9.601200 -0.005300
   CHANNELS 3 Yrotation Xrotation Zrotation
   JOINT Chest3
   {
    OFFSET 0.000000 9.561800 0.000000
    CHANNELS 3 Yrotation Xrotation Zrotation
    JOINT Chest4
    {
     OFFSET 0.000000 9.552100 0.000000
     CHANNELS 3 Yrotation Xrotation Zrotation
     JOINT Neck
     {
      OFFSET 0.000000 14.453000 0.000000
      CHANNELS 3 Yrotation Xrotation Zrotation
      JOINT Head
      {
       OFFSET 0.000000 8.936500 -0.011300
       CHANNELS 3 Yrotation Xrotation Zrotation
       End Site
       {
        OFFSET 0.000000 17.073600 -0.006000
       }
      }
     }
     JOINT RightCollar
     {
      OFFSET -2.921100 9.558500 0.000000
      CHANNELS 3 Yrotation Xrotation Zrotation
      JOINT RightShoulder
      {
       OFFSET -13.519700 0.000000 0.000000
       CHANNELS 3 Yrotation Xrotation Zrotation
       JOINT RightElbow
       {
        OFFSET 0.000000 -29.696600 0.000000
        CHANNELS 3 Yrotation Xrotation Zrotation
        JOINT RightWrist
        {
         OFFSET 0.000000 -24.004700 0.000000
         CHANNELS 3 Yrotation Xrotation Zrotation
         End Site
         {
          OFFSET 0.000000 -17.728500 0.000000
         }
        }
       }
      }
     }
     JOINT LeftCollar
     {
      OFFSET 2.921100 9.558500 0.000000
      CHANNELS 3 Yrotation Xrotation Zrotation
      JOINT LeftShoulder
      {
       OFFSET 13.519700 0.000000 0.000000
       CHANNELS 3 Yrotation Xrotation Zrotation
       JOINT LeftElbow
       {
        OFFSET 0.000000 -29.696600 0.000000
        CHANNELS 3 Yrotation Xrotation Zrotation
        JOINT LeftWrist
        {
         OFFSET 0.000000 -24.004700 0.000000
         CHANNELS 3 Yrotation Xrotation Zrotation
         End Site
         {
          OFFSET 0.000000 -17.728500 0.000000
         }
        }
       }
      }
     }
    }
   }
  }
 }
 JOINT RightHip
 {
  OFFSET -7.771700 -0.012900 -0.001300
  CHANNELS 3 Yrotation Xrotation Zrotation
  JOINT RightKnee
  {
   OFFSET 0.000000 -40.869800 0.001200
   CHANNELS 3 Yrotation Xrotation Zrotation
   JOINT RightAnkle
   {
    OFFSET 0.000000 -39.717900 0.002100
    CHANNELS 3 Yrotation Xrotation Zrotation
    JOINT RightToe
    {
     OFFSET 0.000000 -4.965400 11.033500
     CHANNELS 3 Yrotation Xrotation Zrotation
     End Site
     {
      OFFSET 0.000000 -1.423100 5.872300
     }
    }
   }
  }
 }
 JOINT LeftHip
 {
  OFFSET 7.771700 -0.012900 -0.001300
  CHANNELS 3 Yrotation Xrotation Zrotation
  JOINT LeftKnee
  {
   OFFSET 0.000000 -40.869800 0.001200
   CHANNELS 3 Yrotation Xrotation Zrotation
   JOINT LeftAnkle
   {
    OFFSET 0.000000 -39.717900 0.002100
    CHANNELS 3 Yrotation Xrotation Zrotation
    JOINT LeftToe
    {
     OFFSET 0.000000 -4.965400 11.033500
     CHANNELS 3 Yrotation Xrotation Zrotation
     End Site
     {
      OFFSET 0.000000 -1.423100 5.872300
     }
    }
   }
  }
 }
}
MOTION
Frames: 15
Frame Time: 0.008333
0.000000 85.388000 0.000000 0.000000 -5.767877 0.000000 0.000000 11.653817 0.000000 0.000000 -5.885947 0.000000 0.000000 -0.000000 0.000000 0.000000 -0.000000 0.000000 0.000000 12.528835 0.000000 0.000000 0.711642 0.000000 0.000000 -0.000000 0.000000 0.000000 0.000000 -90.000000 0.000000 -2.309062 0.000000 0.000000 2.309062 0.000000 0.000000 -0.000000 0.000000 0.000000 -0.000000 90.000000 0.000000 -2.309062 0.000000 0.000000 2.309062 0.000000 0.000000 8.520406 0.000000 0.000000 1.905762 0.000000 -0.000000 -4.658285 0.000000 0.000000 -0.000000 0.000000 0.000000 8.520406 0.000000 0.000000 1.905762 0.000000 -0.000000 -4.658285 0.000000 0.000000 -0.000000 0.000000
-178.822914 49.131086 13.317381 173.346107 -32.950586 -5.181195 -0.810539 19.690282 1.981293 -0.074614 2.400792 0.268776 -0.289639 3.995027 0.348345 -0.727927 16.999130 1.589738 14.838712 21.223654 -0.160398 26.931779 4.831542 -4.303173 -3.179619 -2.781527 -3.287410 4.614990 -12.229135 -13.915361 -42.814562 -55.366417 93.958869 6.975354 9.400988 -14.764513 -8.734728 -9.138896 2.623593 0.884061 -52.538340 34.167422 -178.425028 -83.379607 173.513055 5.506405 3.061204 31.179166 0.864011 -52.372155 -2.898223 -160.822978 83.707965 -149.180534 -28.575954 -1.071048 -2.130028 -0.117428 -10.770289 1.521322 -18.189266 -52.582370 24.801037 -75.296415 66.895213 -79.533894 30.510861 7.715717 13.035005 -0.006726 -0.202597 0.005016
-178.820497 49.132668 13.322200 173.291091 -32.930361 -5.199346 -0.825569 19.691650 1.966399 -0.075002 2.400299 0.267615 -0.295802 3.997280 0.347051 -0.746672 17.001089 1.580451 14.910577 21.211315 -0.159522 26.954183 4.841269 -4.305677 -3.195032 -2.798450 -3.309386 4.659031 -12.242598 -13.930439 -42.728572 -55.406790 93.829709 6.998808 9.384344 -14.780076 -8.783673 -9.179477 2.643606 0.533428 -52.584267 34.469622 -179.811822 -84.113457 175.139390 5.581040 2.907264 31.344015 0.846142 -52.390680 -2.819376 -160.789009 83.735020 -149.136687 -28.600209 -1.069903 -2.137735 -0.130825 -10.759706 1.517756 -18.204050 -52.592454 24.888227 -75.304299 66.885021 -79.549813 30.530883 7.710986 13.058020 -0.022604 -0.203583 -0.004493
-178.821140 49.135281 13.325047 173.263517 -32.917665 -5.216884 -0.885350 19.708205 1.919964 -0.117956 2.413123 0.245676 -0.238026 3.980507 0.374564 -0.765323 17.002765 1.571890 14.920093 21.208726 -0.168985 27.027686 4.829931 -4.332095 -3.188191 -2.816906 -3.322794 4.680915 -12.251633 -13.953689 -42.629001 -55.442628 93.681198 7.019266 9.372642 -14.796224 -8.831153 -9.229123 2.668387 0.077969 -52.631663 34.835031 177.805567 -85.014414 177.787326 5.639559 2.800401 31.488613 0.826030 -52.401179 -2.769182 -160.773041 83.751402 -149.116572 -28.603408 -1.064946 -2.142316 -0.126084 -10.756995 1.512492 -18.209731 -52.595704 24.946986 -75.303012 66.870293 -79.550918 30.524925 7.705581 13.066968 -0.017914 -0.198383 -0.002917
-178.820964 49.138383 13.327312 173.236458 -32.907840 -5.241562 -0.915786 19.719557 1.902365 -0.138757 2.419104 0.234254 -0.222971 3.975746 0.382231 -0.783731 17.004021 1.561478 14.923426 21.199262 -0.176948 27.100426 4.817440 -4.354633 -3.189914 -2.833051 -3.331438 4.738351 -12.261313 -13.951143 -42.498766 -55.482135 93.460977 7.036675 9.363530 -14.816408 -8.882184 -9.288250 2.703248 -0.452616 -52.686670 35.232830 173.592922 -86.080078 -177.723869 5.693450 2.753659 31.635194 0.797229 -52.405124 -2.709923 -160.656683 83.768702 -148.990093 -28.601621 -1.061012 -2.157288 -0.099588 -10.754833 1.508601 -18.224425 -52.594907 25.014532 -75.312551 66.854904 -79.560642 30.520380 7.699827 13.071410 -0.011788 -0.194409 -0.000532
-178.821093 49.141210 13.329307 173.201070 -32.896420 -5.260589 -0.929757 19.727314 1.887991 -0.141053 2.419182 0.232964 -0.213160 3.971176 0.389768 -0.818125 17.008843 1.540783 14.957821 21.181643 -0.174382 27.148408 4.814174 -4.364273 -3.197422 -2.846654 -3.335367 4.790571 -12.270359 -13.948544 -42.349772 -55.501962 93.230989 7.047921 9.356699 -14.842247 -8.939705 -9.360713 2.752407 -0.979743 -52.768485 35.599082 164.601875 -87.281248 -168.491941 5.768374 2.779928 31.803167 0.786421 -52.412279 -2.655186 -160.520584 83.778118 -148.842013 -28.606617 -1.063058 -2.158688 -0.123353 -10.746909 1.507623 -18.229711 -52.592385 25.085155 -75.313326 66.813867 -79.565757 30.528657 7.696424 13.083335 -0.012879 -0.185043 -0.002170
-178.818871 49.142556 13.333292 173.170916 -32.868145 -5.297756 -0.924990 19.713132 1.904903 -0.152776 2.423239 0.224320 -0.177906 3.957805 0.415259 -0.882826 17.022306 1.504482 15.023677 21.161521 -0.161962 27.122023 4.781464 -4.365556 -3.207184 -2.858297 -3.335956 4.761406 -12.286577 -14.021932 -42.223428 -55.444818 93.126996 7.049172 9.355149 -14.871059 -8.999754 -9.450651 2.813696 -1.439864 -52.896442 35.883394 137.755310 -88.435640 -141.482257 5.886109 2.899224 32.005036 0.749478 -52.435305 -2.574539 -160.341930 83.788340 -148.647412 -28.622444 -1.067727 -2.151491 -0.049058 -10.739857 1.478503 -18.280329 -52.604897 25.184321 -75.321002 66.802173 -79.570099 30.532563 7.694670 13.088025 -0.016269 -0.180588 -0.007524
-178.819117 49.144268 13.334571 173.159334 -32.848098 -5.327737 -0.915846 19.697956 1.930193 -0.182505 2.435298 0.200478 -0.189147 3.960154 0.408207 -0.890978 17.021566 1.500602 14.952174 21.142811 -0.175576 27.111365 4.716976 -4.370778 -3.218233 -2.867326 -3.335010 4.757065 -12.307450 -14.074986 -42.069868 -55.368096 92.965975 7.038999 9.359730 -14.908666 -9.056632 -9.554555 2.880437 -1.848358 -53.063307 36.106153 71.268820 -88.486433 -74.898707 6.066376 3.134101 32.230795 0.715254 -52.446622 -2.531790 -160.333971 83.789806 -148.638757 -28.522141 -1.077696 -2.159271 -0.121032 -10.730641 1.485721 -18.322205 -52.616385 25.249872 -75.331754 66.798888 -79.577384 30.529757 7.698847 13.087927 -0.019900 -0.180196 -0.007839
-178.821935 49.146667 13.332488 173.165681 -32.840050 -5.349034 -0.953267 19.707666 1.906255 -0.179400 2.434721 0.200818 -0.237492 3.976931 0.375278 -0.850617 17.006141 1.523549 14.906859 21.126857 -0.179851 27.067482 4.674735 -4.369693 -3.198489 -2.876422 -3.325344 4.729504 -12.322081 -14.132957 -41.903828 -55.256697 92.783339 7.019987 9.371663 -14.957046 -9.112678 -9.666681 2.948997 -2.276926 -53.243210 36.351270 39.492970 -87.014777 -43.036252 6.316087 3.504507 32.439090 0.682071 -52.443600 -2.508937 -160.285192 83.793170 -148.586495 -28.510284 -1.089082 -2.161605 -0.152351 -10.724122 1.490223 -18.353488 -52.620224 25.280338 -75.342315 66.789808 -79.583998 30.529817 7.710063 13.082693 -0.018966 -0.182330 -0.005184
-178.822485 49.148341 13.330749 173.155895 -32.826205 -5.374750 -0.993148 19.723741 1.864362 -0.148762 2.419651 0.229809 -0.233082 3.973966 0.380457 -0.859277 17.006033 1.519272 14.860355 21.119807 -0.185138 27.001484 4.651422 -4.367360 -3.244555 -2.882613 -3.332076 4.745138 -12.336636 -14.182646 -41.738976 -55.105747 92.607176 6.992520 9.392900 -15.008725 -9.179706 -9.785249 3.018081 -2.766700 -53.431523 36.689541 30.300008 -85.019158 -33.732692 6.628158 4.015157 32.565875 0.647537 -52.452265 -2.460566 -160.200459 83.794644 -148.495486 -28.522744 -1.096872 -2.157266 -0.174957 -10.719212 1.488576 -18.391962 -52.628039 25.335924 -75.372097 66.780933 -79.608325 30.529828 7.716482 13.076594 -0.014861 -0.184687 -0.005421
-178.826197 49.149539 13.327530 173.167384 -32.810191 -5.391499 -1.021342 19.721931 1.846201 -0.145703 2.416332 0.233832 -0.237663 3.975996 0.376422 -0.841078 16.998412 1.533142 14.829050 21.119356 -0.189849 26.867153 4.654992 -4.353617 -3.306670 -2.888279 -3.348042 4.753274 -12.340546 -14.232685 -41.580251 -54.932032 92.439855 6.953105 9.426166 -15.058427 -9.260231 -9.911036 3.087467 -3.276899 -53.669039 37.109414 27.286037 -82.691761 -30.616967 6.978923 4.643488 32.544729 0.627984 -52.458809 -2.452879 -160.172751 83.800474 -148.454275 -28.573954 -1.109715 -2.146730 -0.135423 -10.713578 1.474090 -18.426377 -52.650719 25.349557 -75.398168 66.795738 -79.631415 30.538734 7.736647 13.082087 -0.022200 -0.203958 -0.011266
-178.828839 49.151170 13.322816 173.160552 -32.801078 -5.402648 -1.025515 19.724516 1.839642 -0.136974 2.407825 0.245404 -0.252692 3.985780 0.360104 -0.846981 16.995094 1.532981 14.755436 21.146272 -0.200068 26.762870 4.693806 -4.353717 -3.313648 -2.898182 -3.347965 4.759646 -12.340453 -14.254618 -41.405739 -54.771161 92.222753 6.903037 9.472506 -15.107875 -9.305211 -10.051865 3.173762 -3.708158 -54.027249 37.520891 26.636995 -80.065943 -29.954426 7.364574 5.409795 32.328334 0.617679 -52.456402 -2.448850 -160.237637 83.808909 -148.504550 -28.578719 -1.128066 -2.143937 -0.122756 -10.705696 1.463109 -18.446062 -52.659656 25.371350 -75.429979 66.792701 -79.659030 30.541024 7.749905 13.079530 -0.013141 -0.217278 -0.015203
-178.831042 49.151984 13.318725 173.150522 -32.782866 -5.413394 -1.020733 19.715591 1.842249 -0.142949 2.409674 0.241418 -0.243079 3.981856 0.366602 -0.854900 17.002069 1.525808 14.668993 21.202625 -0.208950 26.633561 4.778280 -4.352743 -3.309996 -2.912019 -3.339595 4.694119 -12.328769 -14.334053 -41.286222 -54.590410 92.126249 6.846004 9.526294 -15.163127 -9.350874 -10.212236 3.263863 -3.953647 -54.562166 37.809667 27.008506 -77.197444 -30.486680 7.829517 6.390035 31.941398 0.603848 -52.468254 -2.430843 -160.252067 83.807990 -148.518577 -28.547321 -1.145694 -2.146016 -0.148398 -10.693482 1.468196 -18.469721 -52.676901 25.400537 -75.464571 66.789464 -79.692448 30.556356 7.749025 13.079412 -0.026210 -0.219184 -0.017175
-178.831312 49.153537 13.313521 173.134721 -32.770617 -5.428787 -1.007330 19.709283 1.857425 -0.140676 2.412569 0.237083 -0.237956 3.974971 0.376145 -0.852169 17.002155 1.527690 14.588270 21.282996 -0.215163 26.472402 4.906600 -4.341270 -3.356836 -2.928579 -3.354693 4.652529 -12.297879 -14.388543 -41.190001 -54.437870 92.058553 6.787081 9.584967 -15.224809 -9.402828 -10.383421 3.340980 -3.982741 -55.245117 37.899393 27.764499 -74.186627 -31.589844 8.403708 7.603095 31.502392 0.584202 -52.476788 -2.393045 -160.256745 83.809592 -148.524318 -28.539201 -1.153665 -2.147219 -0.152314 -10.688082 1.471215 -18.495907 -52.685583 25.442703 -75.508161 66.790255 -79.731018 30.557171 7.746848 13.069074 -0.029691 -0.220035 -0.015930
-178.830735 49.155630 13.307600 173.115714 -32.760565 -5.442521 -0.995200 19.700977 1.872748 -0.133549 2.417916 0.238567 -0.235815 3.975843 0.378495 -0.841659 17.003730 1.538492 14.495185 21.359562 -0.226116 26.306202 5.045679 -4.326935 -3.399957 -2.976003 -3.380753 4.649952 -12.253722 -14.389067 -41.143457 -54.374248 92.016440 6.680997 9.678088 -15.336462 -9.460526 -10.582371 3.413073 -3.924848 -55.930162 37.825530 28.655699 -71.183176 -32.859495 9.033503 8.979616 31.130717 0.571711 -52.485632 -2.354934 -160.264126 83.808976 -148.533569 -28.527249 -1.155486 -2.148888 -0.132836 -10.687969 1.472344 -18.517791 -52.690002 25.489471 -75.547067 66.790783 -79.770563 30.551664 7.739694 13.063937 -0.028430 -0.218745 -0.015837
